# xmcd
#
# Track frame offsets: 
#        150
#        13507
#        36930
#        55155
#        72050
#        81560
#        97925
#        108617
#        127695
#        135522
#        145702
#        159872
#
# Disc length: 2281 seconds
#
# Revision: 0
# Processed by: cddbd v1.4b42PL1 Copyright (c) Steve Scherf et al.
# Submitted via: ExactAudioCopy v0.90a11
#
DISCID=9208e70c
DTITLE=Floyd Dixon - Mr. Magnificent Hits Again
DYEAR=1900
DGENRE=
TTITLE0=Hey Bartender
TTITLE1=Outskirts of Town
TTITLE2=Let's Groove
TTITLE3=Boogie Bear Woman
TTITLE4=Yulonda
TTITLE5=Call Operator 210
TTITLE6=Wine, Wine, Wine
TTITLE7=Opportunity Blues
TTITLE8=Wisdom Speak
TTITLE9=Tight Skirts
TTITLE10=Walking and Talking
TTITLE11=Sarah Jane
EXTD=
EXTT0=
EXTT1=
EXTT2=
EXTT3=
EXTT4=
EXTT5=
EXTT6=
EXTT7=
EXTT8=
EXTT9=
EXTT10=
EXTT11=
PLAYORDER=
